<svg xmlns="http://www.w3.org/2000/svg" viewBox="0 0 140 208"><path fill="#2269A2" fill-rule="evenodd" d="M69.25 207.25C68.34 206.70 62.49 203.20 58.25 200.67C55.71 199.15 45.19 192.85 34.88 186.66C24.56 180.48 15.90 175.30 15.62 175.15C12.74 173.58 5.68 169.14 4.75 168.31C3.26 166.99 2.19 165.34 1.52 163.31L0.99 161.75L1.07 91.44L1.15 21.12L1.70 18.77C2.52 15.30 4.53 11.48 7.23 8.27C9.84 5.18 14.92 2.06 19.01 1.04C20.05 0.78 21.14 0.44 21.43 0.29C22.17 -0.11 24.38 -0.07 25.20 0.35C25.58 0.55 26.51 0.82 27.28 0.96C30.03 1.47 33.49 3.66 35.07 5.89C36.53 7.96 36.98 9.38 36.99 11.92C37.00 13.33 36.89 14.29 36.73 14.39C36.58 14.48 35.93 14.05 35.29 13.43C34.65 12.81 33.51 11.98 32.75 11.59C31.53 10.96 31.12 10.89 29.12 10.90C27.26 10.91 26.64 11.02 25.62 11.51C23.10 12.73 21.19 14.74 19.77 17.67C17.59 22.16 18.57 28.07 22.23 32.58C26.20 37.47 31.80 39.75 39.84 39.75C43.39 39.75 48.56 39.15 51.62 38.39C52.45 38.19 55.26 37.50 57.88 36.86C60.49 36.22 63.19 35.53 63.88 35.33C67.66 34.21 68.90 33.83 71.62 32.98C87.04 28.18 98.61 26.15 110.62 26.15C118.31 26.15 123.40 26.83 129.25 28.63C132.95 29.77 137.12 31.75 138.44 32.99L139.00 33.52L138.94 98.32L138.88 163.12L138.18 164.59C137.75 165.48 136.84 166.69 135.81 167.73C134.34 169.20 132.67 170.29 122.88 176.15C116.69 179.84 111.40 182.99 111.12 183.14C110.85 183.29 101.91 188.65 91.25 195.04C80.59 201.44 71.51 206.86 71.07 207.09C70.19 207.55 69.81 207.58 69.25 207.25ZM35.04 33.38C31.54 32.84 31.65 32.05 35.32 31.39C40.70 30.43 45.73 28.52 56.12 23.51C63.05 20.16 64.36 19.56 68.99 17.50C87.67 9.23 104.05 5.53 122.62 5.40C127.03 5.37 137.55 5.96 138.44 6.28L139.00 6.49L139.00 16.62C139.00 28.02 139.15 27.30 137.04 26.00C133.00 23.51 127.49 21.75 120.50 20.70C117.54 20.25 115.72 20.15 110.62 20.14C101.79 20.12 94.70 21.02 83.88 23.54C80.71 24.27 75.32 25.75 73.00 26.51C62.02 30.11 52.68 32.41 45.50 33.26C40.83 33.81 38.06 33.85 35.04 33.38Z"/><path fill="#45C2C5" fill-rule="evenodd" d="M35.04 33.38C31.54 32.84 31.65 32.05 35.32 31.39C40.70 30.43 45.73 28.52 56.12 23.51C63.05 20.16 64.36 19.56 68.99 17.50C87.67 9.23 104.05 5.53 122.62 5.40C127.03 5.37 137.55 5.96 138.44 6.28L139.00 6.49L139.00 16.62C139.00 28.02 139.15 27.30 137.04 26.00C133.00 23.51 127.49 21.75 120.50 20.70C117.54 20.25 115.72 20.15 110.62 20.14C101.79 20.12 94.70 21.02 83.88 23.54C80.71 24.27 75.32 25.75 73.00 26.51C62.02 30.11 52.68 32.41 45.50 33.26C40.83 33.81 38.06 33.85 35.04 33.38Z"/><path fill="#FFFFFF" fill-rule="evenodd" d="M46.62 167.66C44.83 166.86 43.58 164.19 41.75 157.25C41.44 156.08 40.99 154.39 40.75 153.50C40.51 152.61 40.08 150.81 39.80 149.50C39.51 148.19 39.05 146.10 38.76 144.85C38.48 143.60 38.25 142.36 38.25 142.10C38.25 141.84 38.03 140.39 37.77 138.88C36.31 130.60 35.91 122.43 36.65 116.24C37.26 111.07 37.27 105.26 36.66 102.75C36.16 100.69 35.13 97.49 34.76 96.81C33.86 95.16 32.06 90.00 31.08 86.25C30.19 82.80 29.71 77.49 30.02 74.38C30.37 70.71 31.35 68.27 33.67 65.21C36.95 60.89 41.76 58.50 47.17 58.50C50.58 58.51 52.00 59.07 59.25 63.25C60.97 64.24 62.94 65.26 63.62 65.53C66.47 66.63 73.60 66.63 76.38 65.53C77.76 64.98 80.78 63.42 81.75 62.75C83.16 61.77 87.75 59.49 89.26 59.01C92.27 58.07 96.77 58.50 100.25 60.07C104.02 61.77 107.66 65.87 109.19 70.12C111.33 76.10 110.06 85.93 105.94 95.38C103.08 101.94 102.44 106.85 103.40 115.15C103.91 119.56 103.78 128.87 103.15 133.62C102.21 140.71 100.66 148.62 99.22 153.79C98.96 154.70 98.75 155.60 98.75 155.79C98.76 156.12 98.32 157.65 97.09 161.62C95.78 165.88 94.33 167.81 92.44 167.85C91.78 167.87 91.08 167.70 90.68 167.43C89.27 166.51 87.74 163.26 86.81 159.25C86.51 157.94 86.03 155.89 85.76 154.70C85.48 153.50 85.25 152.28 85.25 151.99C85.25 151.70 85.04 150.49 84.77 149.30C84.51 148.10 84.05 145.72 83.75 144.00C83.45 142.28 82.99 139.86 82.74 138.62C82.49 137.39 82.17 135.70 82.02 134.88C80.98 129.08 80.59 127.84 79.09 125.59C77.03 122.49 73.22 120.24 70.05 120.25C66.62 120.26 62.46 122.91 60.57 126.28C59.73 127.76 58.75 130.46 58.75 131.27C58.75 131.55 58.54 132.76 58.27 133.95C58.01 135.15 57.55 137.53 57.25 139.25C56.95 140.97 56.50 143.39 56.25 144.62C56.00 145.86 55.67 147.55 55.52 148.38C53.30 160.71 52.00 164.98 49.82 167.05C48.97 167.86 47.64 168.11 46.62 167.66Z"/></svg>
